# xmcd
#
# Track frame offsets: 
#        150
#        21736
#        43177
#        64135
#        88546
#        111755
#        129271
#        147354
#        169948
#        194535
#
# Disc length: 2851 seconds
#
# Revision: 0
# Processed by: cddbd v1.5.2PL0 Copyright (c) Steve Scherf et al.
# Submitted via: ExactAudioCopy v1.3
#
DISCID=930b210a
DTITLE=梅艷芳 - 女人花
DYEAR=1997
DGENRE=Blues
TTITLE0=01 女人花 
TTITLE1=02 一生愛你千百 
TTITLE2=03 月光（上弦月版）
TTITLE3=04 到明天再做好女人
TTITLE4=05 上火 
TTITLE5=06 我是多麼值得愛 
TTITLE6=07 相愛 
TTITLE7=08 受不了沒有愛情 
TTITLE8=09 愈愛愈無求
TTITLE9=10 月光（下弦月版） 
EXTD=
EXTT0=
EXTT1=
EXTT2=
EXTT3=
EXTT4=
EXTT5=
EXTT6=
EXTT7=
EXTT8=
EXTT9=
PLAYORDER=
